<svg width="375" height="551" viewBox="0 0 375 551" fill="none" xmlns="http://www.w3.org/2000/svg">
<g clip-path="url(#clip0_587_1174)">
<rect width="375" height="550" transform="translate(0 0.743164)" fill="#272727" fill-opacity="0.4"/>
<rect x="16" y="71.7432" width="343" height="370" rx="6" fill="white"/>
<path d="M40.415 101.696C40.415 102.191 40.2913 102.665 40.0438 103.119C39.8066 103.562 39.4559 103.939 38.9919 104.248C38.5278 104.547 37.9761 104.738 37.3367 104.821V105.594C37.9348 105.594 38.4195 105.733 38.7908 106.012C39.162 106.3 39.3477 106.703 39.3477 107.218C39.3477 107.734 39.162 108.141 38.7908 108.44C38.4195 108.75 37.9503 108.904 37.3831 108.904H35.3413V107.791H37.0273C37.3161 107.791 37.5327 107.749 37.677 107.667C37.8214 107.584 37.8936 107.435 37.8936 107.218C37.8936 107.002 37.8214 106.852 37.677 106.77C37.5327 106.687 37.3161 106.646 37.0273 106.646H36.1766V104.821C35.2072 104.738 34.4183 104.423 33.8098 103.877C33.2014 103.33 32.8972 102.629 32.8972 101.773H34.7844C34.8256 102.237 35.0061 102.619 35.3258 102.918C35.6558 103.217 36.1147 103.366 36.7025 103.366C37.3109 103.366 37.7853 103.222 38.1256 102.933C38.4659 102.634 38.6361 102.253 38.6361 101.789C38.6361 101.428 38.5278 101.134 38.3113 100.907C38.105 100.68 37.842 100.505 37.5223 100.381C37.213 100.257 36.7798 100.123 36.223 99.9788C35.5217 99.7932 34.9494 99.6075 34.5059 99.4219C34.0728 99.226 33.7016 98.9269 33.3922 98.5247C33.0828 98.1225 32.9281 97.5863 32.9281 96.916C32.9281 96.2972 33.0828 95.7558 33.3922 95.2918C33.7016 94.8277 34.1347 94.4719 34.6916 94.2244C35.2484 93.9769 35.893 93.8532 36.6252 93.8532C37.6667 93.8532 38.5175 94.1161 39.1775 94.6421C39.8478 95.1577 40.2191 95.8693 40.2913 96.7768H38.3422C38.3113 96.3849 38.1256 96.0497 37.7853 95.7713C37.445 95.4929 36.9964 95.3536 36.4395 95.3536C35.9342 95.3536 35.5217 95.4825 35.202 95.7404C34.8823 95.9982 34.7225 96.3694 34.7225 96.8541C34.7225 97.1841 34.8205 97.4574 35.0164 97.6739C35.2227 97.8802 35.4805 98.0452 35.7898 98.1689C36.0992 98.2927 36.522 98.4268 37.0583 98.5711C37.7698 98.7671 38.3473 98.963 38.7908 99.1589C39.2445 99.3549 39.6261 99.6591 39.9355 100.072C40.2552 100.474 40.415 101.015 40.415 101.696ZM46.0536 96.0807C46.8683 96.0807 47.5953 96.2663 48.2347 96.6375C48.8844 96.9985 49.3897 97.5141 49.7506 98.1844C50.1219 98.8444 50.3075 99.6127 50.3075 100.489C50.3075 101.366 50.127 102.139 49.7661 102.81C49.4155 103.47 48.9153 103.98 48.2656 104.341C47.6263 104.702 46.8889 104.882 46.0536 104.882C45.2492 104.882 44.5325 104.707 43.9034 104.356C43.2744 104.006 42.7845 103.516 42.4339 102.887C42.0833 102.248 41.908 101.515 41.908 100.69C41.908 100.371 41.9286 100.082 41.9699 99.8241H48.4822C48.4306 99.1435 48.178 98.5969 47.7242 98.1844C47.2705 97.7719 46.7136 97.5657 46.0536 97.5657C45.1049 97.5657 44.4345 97.9627 44.0427 98.7568H42.14C42.3978 97.973 42.8619 97.3336 43.5322 96.8386C44.2128 96.3333 45.0533 96.0807 46.0536 96.0807ZM46.1309 103.397C46.7394 103.397 47.2602 103.207 47.6933 102.825C48.1264 102.433 48.3842 101.907 48.4667 101.247H43.7488C43.7591 101.897 43.9911 102.418 44.4449 102.81C44.8986 103.201 45.4606 103.397 46.1309 103.397ZM56.4515 96.0807C57.1012 96.0807 57.6787 96.2199 58.184 96.4983C58.6996 96.7768 59.1018 97.1893 59.3906 97.7358C59.6896 98.2824 59.8392 98.9424 59.8392 99.7158V104.743H58.0912V99.9788C58.0912 99.2157 57.9004 98.633 57.5188 98.2308C57.1373 97.8183 56.6165 97.6121 55.9565 97.6121C55.2965 97.6121 54.7706 97.8183 54.3787 98.2308C53.9971 98.633 53.8063 99.2157 53.8063 99.9788V104.743H52.0429V93.2963H53.8063V97.2099C54.1054 96.8489 54.4818 96.5705 54.9356 96.3746C55.3996 96.1786 55.9049 96.0807 56.4515 96.0807ZM65.6463 96.0807C66.461 96.0807 67.1881 96.2663 67.8274 96.6375C68.4771 96.9985 68.9824 97.5141 69.3434 98.1844C69.7146 98.8444 69.9003 99.6127 69.9003 100.489C69.9003 101.366 69.7198 102.139 69.3588 102.81C69.0082 103.47 68.5081 103.98 67.8584 104.341C67.219 104.702 66.4817 104.882 65.6463 104.882C64.842 104.882 64.1253 104.707 63.4962 104.356C62.8671 104.006 62.3773 103.516 62.0267 102.887C61.676 102.248 61.5007 101.515 61.5007 100.69C61.5007 100.371 61.5213 100.082 61.5626 99.8241H68.0749C68.0234 99.1435 67.7707 98.5969 67.317 98.1844C66.8632 97.7719 66.3063 97.5657 65.6463 97.5657C64.6976 97.5657 64.0273 97.9627 63.6354 98.7568H61.7328C61.9906 97.973 62.4546 97.3336 63.1249 96.8386C63.8056 96.3333 64.646 96.0807 65.6463 96.0807ZM65.7237 103.397C66.3321 103.397 66.8529 103.207 67.286 102.825C67.7192 102.433 67.977 101.907 68.0595 101.247H63.3415C63.3518 101.897 63.5838 102.418 64.0376 102.81C64.4913 103.201 65.0534 103.397 65.7237 103.397ZM73.3991 97.4574C73.6569 97.0243 73.9972 96.6891 74.42 96.4519C74.8532 96.2044 75.3636 96.0807 75.9514 96.0807V97.906H75.5028C74.8119 97.906 74.286 98.0813 73.925 98.4319C73.5744 98.7825 73.3991 99.391 73.3991 100.257V104.743H71.6357V96.2199H73.3991V97.4574Z" fill="#272727"/>
<path d="M34.5988 135.598H38.3731V136.743H33.1911V125.961H34.5988V135.598ZM43.4104 128.127C44.2148 128.127 44.9315 128.308 45.5605 128.668C46.1999 129.029 46.7001 129.545 47.061 130.215C47.4219 130.875 47.6024 131.644 47.6024 132.52C47.6024 133.397 47.4271 134.165 47.0765 134.825C46.7258 135.485 46.2308 135.996 45.5915 136.356C44.9624 136.707 44.2354 136.882 43.4104 136.882C42.606 136.882 41.8944 136.707 41.2757 136.356C40.6569 136.006 40.1774 135.526 39.8371 134.918C39.5071 134.299 39.3421 133.603 39.3421 132.83C39.3421 132.551 39.3576 132.268 39.3885 131.979H46.1638C46.1123 131.143 45.8235 130.494 45.2976 130.03C44.7819 129.555 44.1529 129.318 43.4104 129.318C42.8019 129.318 42.2915 129.463 41.879 129.751C41.4768 130.03 41.1932 130.406 41.0282 130.881H39.5123C39.7391 130.066 40.1929 129.406 40.8735 128.901C41.5541 128.385 42.3998 128.127 43.4104 128.127ZM43.4723 135.691C44.1838 135.691 44.7871 135.464 45.2821 135.011C45.7874 134.557 46.0762 133.928 46.1483 133.123H40.7962C40.7962 133.66 40.9148 134.124 41.1519 134.516C41.3891 134.897 41.7088 135.191 42.111 135.397C42.5235 135.593 42.9773 135.691 43.4723 135.691ZM53.5906 128.112C54.6219 128.112 55.4572 128.426 56.0966 129.055C56.7359 129.674 57.0556 130.571 57.0556 131.747V136.743H55.6634V131.948C55.6634 131.102 55.452 130.458 55.0292 130.014C54.6064 129.561 54.0289 129.334 53.2967 129.334C52.5542 129.334 51.9613 129.566 51.5178 130.03C51.0847 130.494 50.8681 131.169 50.8681 132.056V136.743H49.4605V128.266H50.8681V129.473C51.1466 129.04 51.523 128.705 51.9973 128.467C52.482 128.23 53.0131 128.112 53.5906 128.112ZM64.0885 136.743L60.7627 133V136.743H59.355V125.296H60.7627V132.025L64.0266 128.266H65.9911L62.0002 132.489L66.0066 136.743H64.0885ZM70.8583 128.127C71.6627 128.127 72.3794 128.308 73.0085 128.668C73.6479 129.029 74.148 129.545 74.509 130.215C74.8699 130.875 75.0504 131.644 75.0504 132.52C75.0504 133.397 74.8751 134.165 74.5244 134.825C74.1738 135.485 73.6788 135.996 73.0394 136.356C72.4104 136.707 71.6833 136.882 70.8583 136.882C70.054 136.882 69.3424 136.707 68.7237 136.356C68.1049 136.006 67.6254 135.526 67.2851 134.918C66.9551 134.299 66.7901 133.603 66.7901 132.83C66.7901 132.551 66.8055 132.268 66.8365 131.979H73.6118C73.5602 131.143 73.2715 130.494 72.7455 130.03C72.2299 129.555 71.6008 129.318 70.8583 129.318C70.2499 129.318 69.7394 129.463 69.3269 129.751C68.9248 130.03 68.6412 130.406 68.4762 130.881H66.9602C67.1871 130.066 67.6408 129.406 68.3215 128.901C69.0021 128.385 69.8477 128.127 70.8583 128.127ZM70.9202 135.691C71.6318 135.691 72.2351 135.464 72.7301 135.011C73.2354 134.557 73.5241 133.928 73.5963 133.123H68.2441C68.2441 133.66 68.3627 134.124 68.5999 134.516C68.8371 134.897 69.1568 135.191 69.559 135.397C69.9715 135.593 70.4252 135.691 70.9202 135.691ZM78.3161 129.643C78.5636 129.158 78.9142 128.782 79.368 128.514C79.832 128.246 80.3941 128.112 81.0541 128.112V129.566H80.6828C79.105 129.566 78.3161 130.422 78.3161 132.133V136.743H76.9084V128.266H78.3161V129.643ZM82.1531 132.474C82.1531 131.608 82.3284 130.85 82.679 130.2C83.0296 129.54 83.5092 129.029 84.1176 128.668C84.7364 128.308 85.4221 128.127 86.1749 128.127C86.9174 128.127 87.562 128.287 88.1085 128.607C88.6551 128.926 89.0624 129.328 89.3306 129.813V128.266H90.7537V136.743H89.3306V135.165C89.0521 135.66 88.6345 136.073 88.0776 136.403C87.531 136.723 86.8917 136.882 86.1595 136.882C85.4067 136.882 84.726 136.697 84.1176 136.326C83.5092 135.954 83.0296 135.433 82.679 134.763C82.3284 134.093 82.1531 133.33 82.1531 132.474ZM89.3306 132.489C89.3306 131.85 89.2017 131.293 88.9439 130.819C88.686 130.344 88.3354 129.983 87.892 129.736C87.4589 129.478 86.9793 129.349 86.4534 129.349C85.9274 129.349 85.4479 129.473 85.0148 129.72C84.5817 129.968 84.2362 130.329 83.9784 130.803C83.7206 131.278 83.5917 131.834 83.5917 132.474C83.5917 133.123 83.7206 133.691 83.9784 134.175C84.2362 134.65 84.5817 135.016 85.0148 135.274C85.4479 135.521 85.9274 135.645 86.4534 135.645C86.9793 135.645 87.4589 135.521 87.892 135.274C88.3354 135.016 88.686 134.65 88.9439 134.175C89.2017 133.691 89.3306 133.129 89.3306 132.489ZM97.2627 128.112C98.2939 128.112 99.1292 128.426 99.7686 129.055C100.408 129.674 100.728 130.571 100.728 131.747V136.743H99.3355V131.948C99.3355 131.102 99.1241 130.458 98.7013 130.014C98.2784 129.561 97.7009 129.334 96.9688 129.334C96.2263 129.334 95.6333 129.566 95.1898 130.03C94.7567 130.494 94.5402 131.169 94.5402 132.056V136.743H93.1325V128.266H94.5402V129.473C94.8186 129.04 95.195 128.705 95.6694 128.467C96.1541 128.23 96.6852 128.112 97.2627 128.112Z" fill="#8B8989"/>
<path d="M324 128.743L330 134.743L336 128.743" stroke="black" stroke-linecap="round" stroke-linejoin="round"/>
<path d="M44.4833 169.992V180.743H42.7198V173.38L39.4405 180.743H38.2184L34.9236 173.38V180.743H33.1602V169.992H35.0628L38.8372 178.423L42.5961 169.992H44.4833ZM50.4981 180.882C49.6937 180.882 48.9667 180.702 48.317 180.341C47.6673 179.97 47.1568 179.454 46.7856 178.794C46.4143 178.124 46.2287 177.35 46.2287 176.474C46.2287 175.608 46.4195 174.839 46.8011 174.169C47.1826 173.499 47.7034 172.983 48.3634 172.622C49.0234 172.261 49.7607 172.081 50.5754 172.081C51.3901 172.081 52.1275 172.261 52.7875 172.622C53.4475 172.983 53.9682 173.499 54.3498 174.169C54.7314 174.839 54.9222 175.608 54.9222 176.474C54.9222 177.34 54.7262 178.108 54.3343 178.779C53.9425 179.449 53.4062 179.97 52.7256 180.341C52.0553 180.702 51.3128 180.882 50.4981 180.882ZM50.4981 179.351C50.9518 179.351 51.3746 179.243 51.7665 179.026C52.1687 178.81 52.4936 178.485 52.7411 178.052C52.9886 177.618 53.1123 177.093 53.1123 176.474C53.1123 175.855 52.9937 175.334 52.7565 174.911C52.5193 174.478 52.2048 174.153 51.8129 173.937C51.4211 173.72 50.9982 173.612 50.5445 173.612C50.0907 173.612 49.6679 173.72 49.2761 173.937C48.8945 174.153 48.5903 174.478 48.3634 174.911C48.1365 175.334 48.0231 175.855 48.0231 176.474C48.0231 177.392 48.2551 178.103 48.7192 178.608C49.1936 179.103 49.7865 179.351 50.4981 179.351ZM56.0776 176.443C56.0776 175.587 56.2529 174.829 56.6035 174.169C56.9645 173.509 57.4492 172.998 58.0576 172.638C58.6763 172.266 59.3621 172.081 60.1149 172.081C60.6718 172.081 61.2184 172.204 61.7546 172.452C62.3012 172.689 62.7343 173.009 63.054 173.411V169.296H64.8329V180.743H63.054V179.459C62.7652 179.872 62.3631 180.212 61.8474 180.48C61.3421 180.748 60.7595 180.882 60.0995 180.882C59.357 180.882 58.6763 180.697 58.0576 180.326C57.4492 179.944 56.9645 179.418 56.6035 178.748C56.2529 178.067 56.0776 177.299 56.0776 176.443ZM63.054 176.474C63.054 175.886 62.9302 175.376 62.6827 174.942C62.4456 174.509 62.131 174.179 61.7392 173.952C61.3473 173.726 60.9245 173.612 60.4707 173.612C60.017 173.612 59.5942 173.726 59.2023 173.952C58.8104 174.169 58.4907 174.494 58.2432 174.927C58.006 175.35 57.8874 175.855 57.8874 176.443C57.8874 177.031 58.006 177.546 58.2432 177.99C58.4907 178.433 58.8104 178.773 59.2023 179.011C59.6045 179.238 60.0273 179.351 60.4707 179.351C60.9245 179.351 61.3473 179.238 61.7392 179.011C62.131 178.784 62.4456 178.454 62.6827 178.021C62.9302 177.577 63.054 177.062 63.054 176.474ZM74.9608 176.273C74.9608 176.592 74.9402 176.881 74.899 177.139H68.3866C68.4382 177.82 68.6908 178.366 69.1446 178.779C69.5983 179.191 70.1552 179.397 70.8152 179.397C71.764 179.397 72.4343 179 72.8261 178.206H74.7288C74.471 178.99 74.0018 179.635 73.3211 180.14C72.6508 180.635 71.8155 180.882 70.8152 180.882C70.0005 180.882 69.2683 180.702 68.6186 180.341C67.9793 179.97 67.474 179.454 67.1027 178.794C66.7418 178.124 66.5613 177.35 66.5613 176.474C66.5613 175.597 66.7366 174.829 67.0872 174.169C67.4482 173.499 67.9483 172.983 68.5877 172.622C69.2374 172.261 69.9799 172.081 70.8152 172.081C71.6196 172.081 72.3363 172.256 72.9654 172.607C73.5944 172.957 74.0843 173.452 74.4349 174.092C74.7855 174.721 74.9608 175.448 74.9608 176.273ZM73.12 175.716C73.1097 175.066 72.8777 174.545 72.424 174.153C71.9702 173.762 71.4082 173.566 70.7379 173.566C70.1294 173.566 69.6086 173.762 69.1755 174.153C68.7424 174.535 68.4846 175.056 68.4021 175.716H73.12ZM78.4597 169.296V180.743H76.6962V169.296H78.4597Z" fill="#272727"/>
<path d="M38.5897 207.19C38.9816 207.252 39.3373 207.412 39.657 207.669C39.987 207.927 40.2448 208.247 40.4305 208.628C40.6264 209.01 40.7244 209.417 40.7244 209.851C40.7244 210.397 40.5852 210.892 40.3067 211.336C40.0283 211.769 39.6209 212.114 39.0847 212.372C38.5588 212.619 37.9348 212.743 37.213 212.743H33.1911V201.961H37.0583C37.7905 201.961 38.4144 202.085 38.93 202.333C39.4456 202.57 39.8323 202.895 40.0902 203.307C40.348 203.72 40.4769 204.184 40.4769 204.699C40.4769 205.339 40.3016 205.87 39.9509 206.293C39.6106 206.705 39.1569 207.004 38.5897 207.19ZM34.5988 206.618H36.9655C37.6255 206.618 38.1359 206.463 38.4969 206.153C38.8578 205.844 39.0383 205.416 39.0383 204.87C39.0383 204.323 38.8578 203.895 38.4969 203.586C38.1359 203.276 37.6152 203.122 36.9345 203.122H34.5988V206.618ZM37.0892 211.583C37.7905 211.583 38.337 211.418 38.7289 211.088C39.1208 210.758 39.3167 210.299 39.3167 209.711C39.3167 209.113 39.1105 208.644 38.698 208.304C38.2855 207.953 37.7338 207.778 37.0428 207.778H34.5988V211.583H37.0892ZM53.6142 202.039V212.743H52.2065V204.761L48.6487 212.743H47.6587L44.0854 204.746V212.743H42.6778V202.039H44.1937L48.1537 210.887L52.1137 202.039H53.6142ZM69.5521 201.961L66.4274 212.743H64.8496L62.3436 204.065L59.7449 212.743L58.1826 212.759L55.1661 201.961H56.6666L59.0179 211.103L61.6166 201.961H63.1944L65.6694 211.073L68.0361 201.961H69.5521Z" fill="#8B8989"/>
<path d="M324 204.743L330 210.743L336 204.743" stroke="black" stroke-linecap="round" stroke-linejoin="round"/>
<path d="M38.7444 256.743L36.2694 252.443H34.9236V256.743H33.1602V245.992H36.8727C37.6977 245.992 38.3938 246.137 38.9609 246.426C39.5384 246.714 39.9664 247.101 40.2448 247.586C40.5336 248.07 40.678 248.612 40.678 249.21C40.678 249.911 40.4717 250.551 40.0592 251.128C39.657 251.695 39.0331 252.082 38.1875 252.288L40.8481 256.743H38.7444ZM34.9236 251.035H36.8727C37.5327 251.035 38.0277 250.87 38.3577 250.54C38.698 250.21 38.8681 249.767 38.8681 249.21C38.8681 248.653 38.7031 248.22 38.3731 247.911C38.0431 247.591 37.543 247.431 36.8727 247.431H34.9236V251.035ZM50.7456 252.273C50.7456 252.592 50.725 252.881 50.6837 253.139H44.1714C44.2229 253.82 44.4756 254.366 44.9293 254.779C45.3831 255.191 45.94 255.397 46.6 255.397C47.5487 255.397 48.219 255 48.6109 254.206H50.5136C50.2557 254.99 49.7865 255.635 49.1059 256.14C48.4356 256.635 47.6003 256.882 46.6 256.882C45.7853 256.882 45.0531 256.702 44.4034 256.341C43.764 255.97 43.2587 255.454 42.8875 254.794C42.5265 254.124 42.3461 253.35 42.3461 252.474C42.3461 251.597 42.5214 250.829 42.872 250.169C43.2329 249.499 43.7331 248.983 44.3725 248.622C45.0221 248.261 45.7646 248.081 46.6 248.081C47.4043 248.081 48.1211 248.256 48.7501 248.607C49.3792 248.957 49.869 249.452 50.2196 250.092C50.5703 250.721 50.7456 251.448 50.7456 252.273ZM48.9048 251.716C48.8945 251.066 48.6625 250.545 48.2087 250.153C47.755 249.762 47.1929 249.566 46.5226 249.566C45.9142 249.566 45.3934 249.762 44.9603 250.153C44.5271 250.535 44.2693 251.056 44.1868 251.716H48.9048ZM56.7813 248.081C57.4516 248.081 58.0497 248.22 58.5757 248.498C59.1119 248.777 59.5296 249.189 59.8286 249.736C60.1277 250.282 60.2772 250.942 60.2772 251.716V256.743H58.5293V251.979C58.5293 251.216 58.3385 250.633 57.9569 250.231C57.5754 249.818 57.0546 249.612 56.3946 249.612C55.7346 249.612 55.2086 249.818 54.8168 250.231C54.4352 250.633 54.2444 251.216 54.2444 251.979V256.743H52.481V248.22H54.2444V249.194C54.5332 248.844 54.8993 248.571 55.3427 248.375C55.7965 248.179 56.276 248.081 56.7813 248.081ZM64.584 249.658V254.376C64.584 254.696 64.6561 254.928 64.8005 255.073C64.9552 255.207 65.213 255.274 65.574 255.274H66.6568V256.743H65.2646C64.4705 256.743 63.8621 256.558 63.4393 256.186C63.0165 255.815 62.805 255.212 62.805 254.376V249.658H61.7996V248.22H62.805V246.101H64.584V248.22H66.6568V249.658H64.584ZM71.7125 252.443C71.7125 251.587 71.8878 250.829 72.2384 250.169C72.5994 249.509 73.0841 248.998 73.6925 248.638C74.3113 248.266 74.9919 248.081 75.7344 248.081C76.4047 248.081 76.9874 248.215 77.4824 248.483C77.9877 248.741 78.3899 249.066 78.6889 249.457V248.22H80.4678V256.743H78.6889V255.475C78.3899 255.877 77.9825 256.212 77.4669 256.48C76.9513 256.748 76.3634 256.882 75.7034 256.882C74.9713 256.882 74.3009 256.697 73.6925 256.326C73.0841 255.944 72.5994 255.418 72.2384 254.748C71.8878 254.067 71.7125 253.299 71.7125 252.443ZM78.6889 252.474C78.6889 251.886 78.5652 251.376 78.3177 250.942C78.0805 250.509 77.7659 250.179 77.3741 249.952C76.9822 249.726 76.5594 249.612 76.1056 249.612C75.6519 249.612 75.2291 249.726 74.8372 249.952C74.4453 250.169 74.1256 250.494 73.8781 250.927C73.6409 251.35 73.5224 251.855 73.5224 252.443C73.5224 253.031 73.6409 253.546 73.8781 253.99C74.1256 254.433 74.4453 254.773 74.8372 255.011C75.2394 255.238 75.6622 255.351 76.1056 255.351C76.5594 255.351 76.9822 255.238 77.3741 255.011C77.7659 254.784 78.0805 254.454 78.3177 254.021C78.5652 253.577 78.6889 253.062 78.6889 252.474ZM86.2145 252.474C86.2145 251.597 86.3898 250.829 86.7404 250.169C87.1013 249.499 87.5963 248.983 88.2254 248.622C88.8545 248.261 89.5763 248.081 90.391 248.081C91.4223 248.081 92.2731 248.328 92.9434 248.823C93.624 249.308 94.0829 250.004 94.3201 250.911H92.4174C92.2627 250.489 92.0152 250.159 91.6749 249.921C91.3346 249.684 90.9067 249.566 90.391 249.566C89.6692 249.566 89.0917 249.823 88.6585 250.339C88.2357 250.844 88.0243 251.556 88.0243 252.474C88.0243 253.392 88.2357 254.108 88.6585 254.624C89.0917 255.14 89.6692 255.397 90.391 255.397C91.412 255.397 92.0874 254.949 92.4174 254.052H94.3201C94.0726 254.918 93.6085 255.609 92.9279 256.124C92.2473 256.63 91.4017 256.882 90.391 256.882C89.5763 256.882 88.8545 256.702 88.2254 256.341C87.5963 255.97 87.1013 255.454 86.7404 254.794C86.3898 254.124 86.2145 253.35 86.2145 252.474ZM95.4897 252.443C95.4897 251.587 95.665 250.829 96.0156 250.169C96.3765 249.509 96.8612 248.998 97.4697 248.638C98.0884 248.266 98.769 248.081 99.5115 248.081C100.182 248.081 100.765 248.215 101.26 248.483C101.765 248.741 102.167 249.066 102.466 249.457V248.22H104.245V256.743H102.466V255.475C102.167 255.877 101.76 256.212 101.244 256.48C100.728 256.748 100.141 256.882 99.4806 256.882C98.7484 256.882 98.0781 256.697 97.4697 256.326C96.8612 255.944 96.3765 255.418 96.0156 254.748C95.665 254.067 95.4897 253.299 95.4897 252.443ZM102.466 252.474C102.466 251.886 102.342 251.376 102.095 250.942C101.858 250.509 101.543 250.179 101.151 249.952C100.759 249.726 100.337 249.612 99.8828 249.612C99.429 249.612 99.0062 249.726 98.6144 249.952C98.2225 250.169 97.9028 250.494 97.6553 250.927C97.4181 251.35 97.2995 251.855 97.2995 252.443C97.2995 253.031 97.4181 253.546 97.6553 253.99C97.9028 254.433 98.2225 254.773 98.6144 255.011C99.0165 255.238 99.4394 255.351 99.8828 255.351C100.337 255.351 100.759 255.238 101.151 255.011C101.543 254.784 101.858 254.454 102.095 254.021C102.342 253.577 102.466 253.062 102.466 252.474ZM108.325 249.457C108.582 249.024 108.923 248.689 109.346 248.452C109.779 248.204 110.289 248.081 110.877 248.081V249.906H110.428C109.737 249.906 109.212 250.081 108.851 250.432C108.5 250.783 108.325 251.391 108.325 252.257V256.743H106.561V248.22H108.325V249.457Z" fill="#272727"/>
<path d="M39.0383 288.743L34.5988 283.824V288.743H33.1911V277.961H34.5988V282.958L39.0538 277.961H40.8327L35.9445 283.36L40.8791 288.743H39.0383ZM41.9253 284.474C41.9253 283.608 42.1006 282.85 42.4512 282.2C42.8018 281.54 43.2814 281.029 43.8898 280.668C44.5085 280.308 45.1943 280.127 45.9471 280.127C46.6896 280.127 47.3342 280.287 47.8807 280.607C48.4273 280.926 48.8346 281.328 49.1028 281.813V280.266H50.5259V288.743H49.1028V287.165C48.8243 287.66 48.4067 288.073 47.8498 288.403C47.3032 288.723 46.6639 288.882 45.9317 288.882C45.1789 288.882 44.4982 288.697 43.8898 288.326C43.2814 287.954 42.8018 287.433 42.4512 286.763C42.1006 286.093 41.9253 285.33 41.9253 284.474ZM49.1028 284.489C49.1028 283.85 48.9739 283.293 48.716 282.819C48.4582 282.344 48.1076 281.983 47.6642 281.736C47.231 281.478 46.7515 281.349 46.2256 281.349C45.6996 281.349 45.2201 281.473 44.787 281.72C44.3539 281.968 44.0084 282.329 43.7506 282.803C43.4928 283.278 43.3639 283.834 43.3639 284.474C43.3639 285.123 43.4928 285.691 43.7506 286.175C44.0084 286.65 44.3539 287.016 44.787 287.274C45.2201 287.521 45.6996 287.645 46.2256 287.645C46.7515 287.645 47.231 287.521 47.6642 287.274C48.1076 287.016 48.4582 286.65 48.716 286.175C48.9739 285.691 49.1028 285.129 49.1028 284.489ZM54.3123 281.643C54.5598 281.158 54.9105 280.782 55.3642 280.514C55.8283 280.246 56.3903 280.112 57.0503 280.112V281.566H56.6791C55.1012 281.566 54.3123 282.422 54.3123 284.133V288.743H52.9047V280.266H54.3123V281.643ZM58.1493 284.474C58.1493 283.608 58.3246 282.85 58.6753 282.2C59.0259 281.54 59.5054 281.029 60.1138 280.668C60.7326 280.308 61.4184 280.127 62.1712 280.127C62.9137 280.127 63.5582 280.287 64.1048 280.607C64.6513 280.926 65.0587 281.328 65.3268 281.813V280.266H66.7499V288.743H65.3268V287.165C65.0484 287.66 64.6307 288.073 64.0738 288.403C63.5273 288.723 62.8879 288.882 62.1557 288.882C61.4029 288.882 60.7223 288.697 60.1138 288.326C59.5054 287.954 59.0259 287.433 58.6753 286.763C58.3246 286.093 58.1493 285.33 58.1493 284.474ZM65.3268 284.489C65.3268 283.85 65.1979 283.293 64.9401 282.819C64.6823 282.344 64.3317 281.983 63.8882 281.736C63.4551 281.478 62.9756 281.349 62.4496 281.349C61.9237 281.349 61.4442 281.473 61.011 281.72C60.5779 281.968 60.2324 282.329 59.9746 282.803C59.7168 283.278 59.5879 283.834 59.5879 284.474C59.5879 285.123 59.7168 285.691 59.9746 286.175C60.2324 286.65 60.5779 287.016 61.011 287.274C61.4442 287.521 61.9237 287.645 62.4496 287.645C62.9756 287.645 63.4551 287.521 63.8882 287.274C64.3317 287.016 64.6823 286.65 64.9401 286.175C65.1979 285.691 65.3268 285.129 65.3268 284.489ZM72.2844 287.444L74.9141 280.266H76.4145L73.0887 288.743H71.4491L68.1233 280.266H69.6392L72.2844 287.444ZM77.2738 284.474C77.2738 283.608 77.4491 282.85 77.7997 282.2C78.1503 281.54 78.6299 281.029 79.2383 280.668C79.857 280.308 80.5428 280.127 81.2956 280.127C82.0381 280.127 82.6827 280.287 83.2292 280.607C83.7758 280.926 84.1831 281.328 84.4513 281.813V280.266H85.8744V288.743H84.4513V287.165C84.1728 287.66 83.7552 288.073 83.1983 288.403C82.6517 288.723 82.0124 288.882 81.2802 288.882C80.5274 288.882 79.8467 288.697 79.2383 288.326C78.6299 287.954 78.1503 287.433 77.7997 286.763C77.4491 286.093 77.2738 285.33 77.2738 284.474ZM84.4513 284.489C84.4513 283.85 84.3224 283.293 84.0645 282.819C83.8067 282.344 83.4561 281.983 83.0127 281.736C82.5795 281.478 82.1 281.349 81.5741 281.349C81.0481 281.349 80.5686 281.473 80.1355 281.72C79.7024 281.968 79.3569 282.329 79.0991 282.803C78.8413 283.278 78.7124 283.834 78.7124 284.474C78.7124 285.123 78.8413 285.691 79.0991 286.175C79.3569 286.65 79.7024 287.016 80.1355 287.274C80.5686 287.521 81.0481 287.645 81.5741 287.645C82.1 287.645 82.5795 287.521 83.0127 287.274C83.4561 287.016 83.8067 286.65 84.0645 286.175C84.3224 285.691 84.4513 285.129 84.4513 284.489ZM92.3834 280.112C93.4146 280.112 94.2499 280.426 94.8893 281.055C95.5287 281.674 95.8484 282.571 95.8484 283.747V288.743H94.4562V283.948C94.4562 283.102 94.2448 282.458 93.8219 282.014C93.3991 281.561 92.8216 281.334 92.0894 281.334C91.3469 281.334 90.754 281.566 90.3105 282.03C89.8774 282.494 89.6609 283.169 89.6609 284.056V288.743H88.2532V280.266H89.6609V281.473C89.9393 281.04 90.3157 280.705 90.7901 280.467C91.2748 280.23 91.8059 280.112 92.3834 280.112Z" fill="#8B8989"/>
<path d="M325 280.743L331 286.743L337 280.743" stroke="black" stroke-linecap="round" stroke-linejoin="round"/>
<rect x="32.5" y="316.243" width="310" height="49" rx="5.5" fill="white"/>
<path d="M53.596 345.743V335.943H57.586C58.6313 335.943 59.546 336.153 60.33 336.573C61.1233 336.984 61.7393 337.558 62.178 338.295C62.6167 339.032 62.836 339.882 62.836 340.843C62.836 341.804 62.6167 342.654 62.178 343.391C61.7393 344.128 61.1233 344.707 60.33 345.127C59.546 345.538 58.6313 345.743 57.586 345.743H53.596ZM54.632 344.847H57.53C58.398 344.847 59.1493 344.679 59.784 344.343C60.428 343.998 60.9273 343.526 61.282 342.929C61.6367 342.322 61.814 341.627 61.814 340.843C61.814 340.05 61.6367 339.354 61.282 338.757C60.9273 338.16 60.428 337.693 59.784 337.357C59.1493 337.012 58.398 336.839 57.53 336.839H54.632V344.847ZM69.7584 345.743V344.119L69.7164 343.853V341.137C69.7164 340.512 69.5391 340.031 69.1844 339.695C68.8391 339.359 68.3211 339.191 67.6304 339.191C67.1544 339.191 66.7017 339.27 66.2724 339.429C65.8431 339.588 65.4791 339.798 65.1804 340.059L64.7324 339.317C65.1057 339 65.5537 338.757 66.0764 338.589C66.5991 338.412 67.1497 338.323 67.7284 338.323C68.6804 338.323 69.4131 338.561 69.9264 339.037C70.4491 339.504 70.7104 340.218 70.7104 341.179V345.743H69.7584ZM67.2244 345.813C66.6737 345.813 66.1931 345.724 65.7824 345.547C65.3811 345.36 65.0731 345.108 64.8584 344.791C64.6437 344.464 64.5364 344.091 64.5364 343.671C64.5364 343.288 64.6251 342.943 64.8024 342.635C64.9891 342.318 65.2877 342.066 65.6984 341.879C66.1184 341.683 66.6784 341.585 67.3784 341.585H69.9124V342.327H67.4064C66.6971 342.327 66.2024 342.453 65.9224 342.705C65.6517 342.957 65.5164 343.27 65.5164 343.643C65.5164 344.063 65.6797 344.399 66.0064 344.651C66.3331 344.903 66.7904 345.029 67.3784 345.029C67.9384 345.029 68.4191 344.903 68.8204 344.651C69.2311 344.39 69.5297 344.016 69.7164 343.531L69.9404 344.217C69.7537 344.702 69.4271 345.09 68.9604 345.379C68.5031 345.668 67.9244 345.813 67.2244 345.813ZM72.4902 345.743L75.5982 341.711L75.5842 342.201L72.6302 338.393H73.7502L76.1722 341.543L75.7522 341.529L78.1742 338.393H79.2662L76.2842 342.243L76.2982 341.711L79.4342 345.743H78.3002L75.7382 342.383L76.1302 342.439L73.6102 345.743H72.4902ZM81.2887 345.743V338.393H82.2827V345.743H81.2887ZM81.7927 336.769C81.5874 336.769 81.4147 336.699 81.2747 336.559C81.1347 336.419 81.0647 336.251 81.0647 336.055C81.0647 335.859 81.1347 335.696 81.2747 335.565C81.4147 335.425 81.5874 335.355 81.7927 335.355C81.9981 335.355 82.1707 335.42 82.3107 335.551C82.4507 335.682 82.5207 335.845 82.5207 336.041C82.5207 336.246 82.4507 336.419 82.3107 336.559C82.1801 336.699 82.0074 336.769 81.7927 336.769ZM85.2485 345.743V335.355H86.2425V345.743H85.2485ZM96.1943 345.813C95.429 345.813 94.757 345.654 94.1783 345.337C93.5997 345.01 93.147 344.567 92.8203 344.007C92.4937 343.438 92.3303 342.789 92.3303 342.061C92.3303 341.333 92.4843 340.689 92.7923 340.129C93.1097 339.569 93.539 339.13 94.0803 338.813C94.631 338.486 95.247 338.323 95.9283 338.323C96.619 338.323 97.2303 338.482 97.7623 338.799C98.3037 339.107 98.7283 339.546 99.0363 340.115C99.3443 340.675 99.4983 341.324 99.4983 342.061C99.4983 342.108 99.4937 342.159 99.4843 342.215C99.4843 342.262 99.4843 342.313 99.4843 342.369H93.0863V341.627H98.9523L98.5603 341.921C98.5603 341.389 98.4437 340.918 98.2103 340.507C97.9863 340.087 97.6783 339.76 97.2863 339.527C96.8943 339.294 96.4417 339.177 95.9283 339.177C95.4243 339.177 94.9717 339.294 94.5703 339.527C94.169 339.76 93.8563 340.087 93.6323 340.507C93.4083 340.927 93.2963 341.408 93.2963 341.949V342.103C93.2963 342.663 93.4177 343.158 93.6603 343.587C93.9123 344.007 94.2577 344.338 94.6963 344.581C95.1443 344.814 95.653 344.931 96.2223 344.931C96.6703 344.931 97.0857 344.852 97.4683 344.693C97.8603 344.534 98.1963 344.292 98.4763 343.965L99.0363 344.609C98.7097 345.001 98.299 345.3 97.8043 345.505C97.319 345.71 96.7823 345.813 96.1943 345.813ZM104.046 345.813C103.355 345.813 102.823 345.626 102.45 345.253C102.076 344.88 101.89 344.352 101.89 343.671V336.769H102.884V343.615C102.884 344.044 102.991 344.376 103.206 344.609C103.43 344.842 103.747 344.959 104.158 344.959C104.596 344.959 104.96 344.833 105.25 344.581L105.6 345.295C105.404 345.472 105.166 345.603 104.886 345.687C104.615 345.771 104.335 345.813 104.046 345.813ZM100.574 339.219V338.393H105.124V339.219H100.574Z" fill="#9F9F9F"/>
<rect x="32.5" y="316.243" width="310" height="49" rx="5.5" stroke="#E6E6E6"/>
<rect x="32" y="375.743" width="311" height="50" rx="6" fill="#30A6A9"/>
<path d="M71.023 405.72C70.5546 405.272 70.0988 404.81 69.656 404.336C69.284 403.958 69.06 403.683 69.06 403.683L66.26 402.346C67.381 401.075 67.9997 399.438 68 397.743C68 393.884 64.86 390.743 61 390.743C57.14 390.743 54 393.884 54 397.743C54 401.602 57.14 404.743 61 404.743C62.763 404.743 64.37 404.083 65.603 403.004L66.94 405.804C66.94 405.804 67.215 406.028 67.593 406.4C67.98 406.763 68.489 407.254 68.977 407.767L70.335 409.159L70.939 409.805L73.06 407.684L72.414 407.08C72.035 406.708 71.529 406.214 71.023 405.72ZM61 402.743C58.243 402.743 56 400.5 56 397.743C56 394.986 58.243 392.743 61 392.743C63.757 392.743 66 394.986 66 397.743C66 400.5 63.757 402.743 61 402.743Z" fill="white"/>
<path d="M96.0166 404.047H91.5152L90.7417 406.243H88.9009L92.7527 395.477H94.7945L98.6463 406.243H96.79L96.0166 404.047ZM95.5216 402.608L93.7736 397.612L92.0102 402.608H95.5216ZM103.972 401.927L106.725 406.243H104.73L102.889 403.351L101.156 406.243H99.3155L102.069 402.051L99.3155 397.72H101.311L103.152 400.613L104.884 397.72H106.725L103.972 401.927ZM110.098 399.158V403.876C110.098 404.196 110.17 404.428 110.314 404.573C110.469 404.707 110.727 404.774 111.088 404.774H112.17V406.243H110.778C109.984 406.243 109.376 406.058 108.953 405.686C108.53 405.315 108.319 404.712 108.319 403.876V399.158H107.313V397.72H108.319V395.601H110.098V397.72H112.17V399.158H110.098ZM113.208 401.943C113.208 401.087 113.383 400.329 113.734 399.669C114.095 399.009 114.579 398.498 115.188 398.138C115.807 397.766 116.487 397.581 117.23 397.581C117.9 397.581 118.483 397.715 118.978 397.983C119.483 398.241 119.885 398.566 120.184 398.957V397.72H121.963V406.243H120.184V404.975C119.885 405.377 119.478 405.712 118.962 405.98C118.447 406.248 117.859 406.382 117.199 406.382C116.467 406.382 115.796 406.197 115.188 405.826C114.579 405.444 114.095 404.918 113.734 404.248C113.383 403.567 113.208 402.799 113.208 401.943ZM120.184 401.974C120.184 401.386 120.061 400.876 119.813 400.442C119.576 400.009 119.261 399.679 118.869 399.452C118.478 399.226 118.055 399.112 117.601 399.112C117.147 399.112 116.724 399.226 116.333 399.452C115.941 399.669 115.621 399.994 115.374 400.427C115.136 400.85 115.018 401.355 115.018 401.943C115.018 402.531 115.136 403.046 115.374 403.49C115.621 403.933 115.941 404.273 116.333 404.511C116.735 404.738 117.158 404.851 117.601 404.851C118.055 404.851 118.478 404.738 118.869 404.511C119.261 404.284 119.576 403.954 119.813 403.521C120.061 403.077 120.184 402.562 120.184 401.974ZM126.043 398.957C126.301 398.524 126.641 398.189 127.064 397.952C127.497 397.704 128.007 397.581 128.595 397.581V399.406H128.147C127.456 399.406 126.93 399.581 126.569 399.932C126.218 400.283 126.043 400.891 126.043 401.757V406.243H124.279V397.72H126.043V398.957Z" fill="white"/>
</g>
<defs>
<clipPath id="clip0_587_1174">
<rect width="375" height="550" fill="white" transform="translate(0 0.743164)"/>
</clipPath>
</defs>
</svg>
