<svg width="15" height="14" viewBox="0 0 15 14" fill="none" xmlns="http://www.w3.org/2000/svg">
<path d="M0.901574 6.12891C0.962951 6.11884 1.02506 6.1142 1.08721 6.11501H11.6694L11.4387 6.00655C11.2131 5.89867 11.0079 5.75184 10.8323 5.57272L7.86477 2.57385C7.47394 2.19682 7.40828 1.59031 7.70915 1.13678C8.05933 0.6535 8.73088 0.548567 9.20914 0.902445C9.24778 0.931051 9.2845 0.962233 9.31902 0.995787L14.6852 6.41869C15.1046 6.84202 15.105 7.52873 14.6861 7.95253C14.6858 7.9528 14.6855 7.9531 14.6852 7.95337L9.31902 13.3763C8.89931 13.7992 8.21978 13.7983 7.80122 13.3741C7.76828 13.3408 7.73753 13.3052 7.70915 13.2678C7.40828 12.8143 7.47394 12.2078 7.86477 11.8308L10.8269 8.82646C10.9844 8.66716 11.1654 8.53359 11.3635 8.43059L11.6855 8.28417H1.14627C0.598014 8.30474 0.117 7.91772 0.0140018 7.37312C-0.0808792 6.78186 0.316489 6.22482 0.901574 6.12891Z" fill="#272727"/>
</svg>
