<svg width="24" height="25" viewBox="0 0 24 25" fill="none" xmlns="http://www.w3.org/2000/svg">
<path d="M7.15 17.4928H8.65L9.75 14.5928H14.25L15.375 17.4928H16.875L12.775 6.79277H11.225L7.15 17.4928ZM10.2 13.3678L11.975 8.59277H12.025L13.825 13.3678H10.2ZM12 22.6928C10.5833 22.6928 9.26667 22.4386 8.05 21.9303C6.83333 21.4219 5.775 20.7178 4.875 19.8178C3.975 18.9178 3.27083 17.8594 2.7625 16.6428C2.25417 15.4261 2 14.1094 2 12.6928C2 11.2928 2.25417 9.98444 2.7625 8.76777C3.27083 7.55111 3.975 6.49277 4.875 5.59277C5.775 4.69277 6.83333 3.98444 8.05 3.46777C9.26667 2.95111 10.5833 2.69277 12 2.69277C13.4 2.69277 14.7083 2.95111 15.925 3.46777C17.1417 3.98444 18.2 4.69277 19.1 5.59277C20 6.49277 20.7083 7.55111 21.225 8.76777C21.7417 9.98444 22 11.2928 22 12.6928C22 14.1094 21.7417 15.4261 21.225 16.6428C20.7083 17.8594 20 18.9178 19.1 19.8178C18.2 20.7178 17.1417 21.4219 15.925 21.9303C14.7083 22.4386 13.4 22.6928 12 22.6928ZM12 21.1928C14.4167 21.1928 16.4375 20.3803 18.0625 18.7553C19.6875 17.1303 20.5 15.1094 20.5 12.6928C20.5 10.2761 19.6875 8.25527 18.0625 6.63027C16.4375 5.00527 14.4167 4.19277 12 4.19277C9.58333 4.19277 7.5625 5.00527 5.9375 6.63027C4.3125 8.25527 3.5 10.2761 3.5 12.6928C3.5 15.1094 4.3125 17.1303 5.9375 18.7553C7.5625 20.3803 9.58333 21.1928 12 21.1928Z" fill="#858181"/>
</svg>
