<svg width="18" height="21" viewBox="0 0 18 21" fill="none" xmlns="http://www.w3.org/2000/svg">
<path d="M13 6.44275C12.6667 6.44275 12.375 6.31775 12.125 6.06775C11.875 5.81775 11.75 5.52608 11.75 5.19275C11.75 4.95942 11.8625 4.64692 12.0875 4.25525C12.3125 3.86358 12.6167 3.46775 13 3.06775C13.3833 3.46775 13.6875 3.86358 13.9125 4.25525C14.1375 4.64692 14.25 4.95942 14.25 5.19275C14.25 5.52608 14.1292 5.81775 13.8875 6.06775C13.6458 6.31775 13.35 6.44275 13 6.44275ZM15.75 13.4427C15.1333 13.4427 14.6042 13.2219 14.1625 12.7802C13.7208 12.3386 13.5 11.8094 13.5 11.1927C13.5 10.6761 13.7292 10.0302 14.1875 9.25525C14.6458 8.48025 15.1667 7.75108 15.75 7.06775C16.3167 7.75108 16.8333 8.48025 17.3 9.25525C17.7667 10.0302 18 10.6761 18 11.1927C18 11.8094 17.7833 12.3386 17.35 12.7802C16.9167 13.2219 16.3833 13.4427 15.75 13.4427ZM5 16.4427H6.5V14.4427H8.5V12.9427H6.5V10.9427H5V12.9427H3V14.4427H5V16.4427ZM1.5 20.6927C1.1 20.6927 0.75 20.5427 0.45 20.2427C0.15 19.9427 0 19.5927 0 19.1927V10.4427C0 9.00942 0.475 7.75942 1.425 6.69275C2.375 5.62608 3.56667 4.97608 5 4.74275V2.19275H2.75V0.692749H8.75C9.23333 0.692749 9.69167 0.759416 10.125 0.892749C10.5583 1.02608 10.9667 1.21775 11.35 1.46775L10.25 2.59275C10.0167 2.45942 9.77917 2.35942 9.5375 2.29275C9.29583 2.22608 9.03333 2.19275 8.75 2.19275H6.5V4.74275C7.93333 4.97608 9.125 5.62608 10.075 6.69275C11.025 7.75942 11.5 9.00942 11.5 10.4427V19.1927C11.5 19.5927 11.35 19.9427 11.05 20.2427C10.75 20.5427 10.4 20.6927 10 20.6927H1.5ZM1.5 19.1927H10V10.4427C10 9.25942 9.5875 8.25525 8.7625 7.43025C7.9375 6.60525 6.94167 6.19275 5.775 6.19275C4.59167 6.19275 3.58333 6.60525 2.75 7.43025C1.91667 8.25525 1.5 9.25942 1.5 10.4427V19.1927ZM1.5 19.1927H10H1.5Z" fill="#858181"/>
</svg>
