<svg width="1024" height="1024" viewBox="0 0 1024 1024" fill="none" xmlns="http://www.w3.org/2000/svg">
<rect width="1024" height="1024" fill="#272727"/>
<path d="M710.111 676.796V641.063C710.111 636.166 709.156 631.559 707.247 627.243C705.421 622.844 702.889 619.026 699.652 615.789C696.415 612.552 692.597 610.02 688.198 608.194C683.882 606.285 679.275 605.33 674.378 605.33C669.481 605.33 664.833 606.285 660.434 608.194C656.117 610.02 652.341 612.552 649.104 615.789C645.867 619.026 643.293 622.844 641.384 627.243C639.558 631.559 638.645 636.166 638.645 641.063V676.796H710.111ZM745.843 748.137H710.111V712.404H638.645V748.137H603.037V641.063C603.037 631.186 604.905 621.931 608.64 613.299C612.375 604.583 617.438 596.989 623.829 590.514C630.304 584.04 637.857 578.936 646.489 575.201C655.204 571.465 664.501 569.598 674.378 569.598C684.255 569.598 693.51 571.465 702.142 575.201C710.858 578.936 718.452 584.04 724.927 590.514C731.401 596.989 736.505 604.583 740.241 613.299C743.976 621.931 745.843 631.186 745.843 641.063V748.137ZM812.577 605.33V676.796H848.31C853.207 676.796 857.814 675.883 862.13 674.057C866.446 672.148 870.223 669.575 873.46 666.337C876.697 663.1 879.228 659.324 881.055 655.008C882.964 650.608 883.918 645.96 883.918 641.063C883.918 636.166 882.964 631.559 881.055 627.243C879.228 622.844 876.697 619.026 873.46 615.789C870.223 612.552 866.446 610.02 862.13 608.194C857.814 606.285 853.207 605.33 848.31 605.33H812.577ZM812.577 748.137H776.845V569.598H848.31C854.867 569.598 861.175 570.469 867.235 572.212C873.294 573.872 878.938 576.28 884.167 579.434C889.479 582.505 894.293 586.24 898.61 590.639C903.009 594.955 906.744 599.769 909.815 605.081C912.969 610.394 915.376 616.079 917.036 622.138C918.779 628.198 919.651 634.506 919.651 641.063C919.651 650.857 917.783 660.112 914.048 668.827C910.313 677.46 905.208 685.013 898.734 691.487C892.26 697.961 884.665 703.066 875.95 706.801C867.318 710.536 858.104 712.404 848.31 712.404H812.577V748.137Z" fill="white"/>
<path d="M224.695 465.681V428.757C224.695 423.697 223.709 418.937 221.736 414.477C219.849 409.931 217.233 405.986 213.888 402.641C210.543 399.296 206.598 396.68 202.052 394.793C197.592 392.82 192.832 391.834 187.771 391.834C182.711 391.834 177.908 392.82 173.362 394.793C168.902 396.68 165 399.296 161.655 402.641C158.31 405.986 155.651 409.931 153.678 414.477C151.791 418.937 150.848 423.697 150.848 428.757V465.681H224.695ZM261.619 539.4H224.695V502.476H150.848V539.4H114.053V428.757C114.053 418.551 115.982 408.988 119.842 400.068C123.702 391.062 128.934 383.214 135.538 376.524C142.228 369.834 150.033 364.559 158.953 360.699C167.959 356.84 177.565 354.91 187.771 354.91C197.978 354.91 207.541 356.84 216.461 360.699C225.467 364.559 233.315 369.834 240.005 376.524C246.695 383.214 251.97 391.062 255.829 400.068C259.689 408.988 261.619 418.551 261.619 428.757V539.4ZM437.875 465.681C437.875 475.888 435.945 485.494 432.085 494.5C428.226 503.42 422.951 511.225 416.261 517.915C409.571 524.519 401.723 529.751 392.717 533.611C383.797 537.47 374.234 539.4 364.027 539.4C353.821 539.4 344.215 537.47 335.209 533.611C326.289 529.751 318.484 524.519 311.794 517.915C305.19 511.225 299.958 503.42 296.098 494.5C292.238 485.494 290.309 475.888 290.309 465.681V354.91H327.104V465.681C327.104 470.742 328.047 475.502 329.934 479.962C331.907 484.422 334.566 488.324 337.911 491.669C341.256 495.014 345.158 497.673 349.618 499.646C354.164 501.533 358.967 502.476 364.027 502.476C369.088 502.476 373.848 501.533 378.308 499.646C382.854 497.673 386.799 495.014 390.144 491.669C393.489 488.324 396.105 484.422 397.992 479.962C399.965 475.502 400.951 470.742 400.951 465.681V354.91H437.875V465.681Z" fill="white"/>
<path d="M755.902 450.761C755.902 463.86 753.555 476.086 748.861 487.439C744.167 498.683 737.781 508.452 729.703 516.749C721.625 524.936 712.128 531.431 701.212 536.234C690.405 540.928 678.78 543.275 666.335 543.275C654 543.275 642.375 540.928 631.458 536.234C620.652 531.431 611.154 524.936 602.967 516.749C594.889 508.452 588.504 498.683 583.81 487.439C579.116 476.086 576.769 463.86 576.769 450.761C576.769 437.443 579.116 425.108 583.81 413.755C588.504 402.402 594.889 392.633 602.967 384.445C611.154 376.149 620.652 369.654 631.458 364.96C642.375 360.266 654 357.919 666.335 357.919C678.78 357.919 690.405 360.157 701.212 364.633C712.128 368.999 721.625 375.276 729.703 383.463C737.781 391.541 744.167 401.311 748.861 412.773C753.555 424.126 755.902 436.788 755.902 450.761ZM710.873 450.761C710.873 443.556 709.672 437.061 707.271 431.276C704.978 425.381 701.813 420.359 697.774 416.211C693.735 411.954 688.986 408.734 683.528 406.551C678.179 404.258 672.448 403.112 666.335 403.112C660.222 403.112 654.437 404.258 648.979 406.551C643.63 408.734 638.936 411.954 634.897 416.211C630.967 420.359 627.856 425.381 625.564 431.276C623.271 437.061 622.125 443.556 622.125 450.761C622.125 457.529 623.271 463.806 625.564 469.591C627.856 475.377 630.967 480.398 634.897 484.655C638.936 488.913 643.63 492.297 648.979 494.807C654.437 497.209 660.222 498.41 666.335 498.41C672.448 498.41 678.179 497.263 683.528 494.971C688.986 492.679 693.735 489.458 697.774 485.31C701.813 481.162 704.978 476.141 707.271 470.246C709.672 464.351 710.873 457.856 710.873 450.761Z" fill="#FF0000"/>
<path d="M457.619 617.605C457.619 617.605 456.086 344.885 457.845 362.779C459.604 380.673 516.937 319.608 513.232 362.779C509.528 405.95 513.232 497.394 513.232 497.394C513.232 497.394 556.679 490.715 556.905 497.394C557.132 504.072 564.091 557.499 556.905 554.16C549.719 550.821 512.43 554.16 512.43 554.16V664.354C512.43 677.711 515.087 695.5 522.5 695.5C529.913 695.5 559.357 705.789 574 691.5C588.643 677.211 581.387 747.834 579.143 747.834H542.08C542.08 747.834 512.718 748.207 507.488 747.834C502.259 747.461 483.237 743.871 472.67 734.477C462.104 725.084 457.845 704.424 457.845 684.389C457.845 664.354 457.619 617.605 457.619 617.605Z" fill="#45D5FD"/>
</svg>
