<svg width="28" height="31" viewBox="0 0 28 31" fill="none" xmlns="http://www.w3.org/2000/svg">
<path d="M3.12332 30.5172C2.53246 30.5172 2.01546 30.2957 1.57231 29.8525C1.12917 29.4094 0.907593 28.8924 0.907593 28.3015V5.40569C0.907593 4.81483 1.12917 4.29783 1.57231 3.85469C2.01546 3.41154 2.53246 3.18997 3.12332 3.18997H5.52369V0.974243H7.92406V3.18997H20.4798V0.974243H22.8802V3.18997H25.2806C25.8714 3.18997 26.3884 3.41154 26.8316 3.85469C27.2747 4.29783 27.4963 4.81483 27.4963 5.40569V28.3015C27.4963 28.8924 27.2747 29.4094 26.8316 29.8525C26.3884 30.2957 25.8714 30.5172 25.2806 30.5172H3.12332ZM3.12332 28.3015H25.2806V12.4222H3.12332V28.3015ZM3.12332 10.2064H25.2806V5.40569H3.12332V10.2064ZM3.12332 10.2064V5.40569V10.2064ZM14.2019 18.7C13.7834 18.7 13.4326 18.5585 13.1495 18.2754C12.8664 17.9922 12.7248 17.6414 12.7248 17.2229C12.7248 16.8044 12.8664 16.4535 13.1495 16.1704C13.4326 15.8873 13.7834 15.7457 14.2019 15.7457C14.6205 15.7457 14.9713 15.8873 15.2544 16.1704C15.5375 16.4535 15.6791 16.8044 15.6791 17.2229C15.6791 17.6414 15.5375 17.9922 15.2544 18.2754C14.9713 18.5585 14.6205 18.7 14.2019 18.7ZM8.29334 18.7C7.87482 18.7 7.52399 18.5585 7.24087 18.2754C6.95775 17.9922 6.81619 17.6414 6.81619 17.2229C6.81619 16.8044 6.95775 16.4535 7.24087 16.1704C7.52399 15.8873 7.87482 15.7457 8.29334 15.7457C8.71187 15.7457 9.06269 15.8873 9.34581 16.1704C9.62893 16.4535 9.77049 16.8044 9.77049 17.2229C9.77049 17.6414 9.62893 17.9922 9.34581 18.2754C9.06269 18.5585 8.71187 18.7 8.29334 18.7ZM20.1105 18.7C19.692 18.7 19.3412 18.5585 19.0581 18.2754C18.775 17.9922 18.6334 17.6414 18.6334 17.2229C18.6334 16.8044 18.775 16.4535 19.0581 16.1704C19.3412 15.8873 19.692 15.7457 20.1105 15.7457C20.5291 15.7457 20.8799 15.8873 21.163 16.1704C21.4461 16.4535 21.5877 16.8044 21.5877 17.2229C21.5877 17.6414 21.4461 17.9922 21.163 18.2754C20.8799 18.5585 20.5291 18.7 20.1105 18.7ZM14.2019 24.6086C13.7834 24.6086 13.4326 24.4671 13.1495 24.184C12.8664 23.9008 12.7248 23.55 12.7248 23.1315C12.7248 22.713 12.8664 22.3621 13.1495 22.079C13.4326 21.7959 13.7834 21.6543 14.2019 21.6543C14.6205 21.6543 14.9713 21.7959 15.2544 22.079C15.5375 22.3621 15.6791 22.713 15.6791 23.1315C15.6791 23.55 15.5375 23.9008 15.2544 24.184C14.9713 24.4671 14.6205 24.6086 14.2019 24.6086ZM8.29334 24.6086C7.87482 24.6086 7.52399 24.4671 7.24087 24.184C6.95775 23.9008 6.81619 23.55 6.81619 23.1315C6.81619 22.713 6.95775 22.3621 7.24087 22.079C7.52399 21.7959 7.87482 21.6543 8.29334 21.6543C8.71187 21.6543 9.06269 21.7959 9.34581 22.079C9.62893 22.3621 9.77049 22.713 9.77049 23.1315C9.77049 23.55 9.62893 23.9008 9.34581 24.184C9.06269 24.4671 8.71187 24.6086 8.29334 24.6086ZM20.1105 24.6086C19.692 24.6086 19.3412 24.4671 19.0581 24.184C18.775 23.9008 18.6334 23.55 18.6334 23.1315C18.6334 22.713 18.775 22.3621 19.0581 22.079C19.3412 21.7959 19.692 21.6543 20.1105 21.6543C20.5291 21.6543 20.8799 21.7959 21.163 22.079C21.4461 22.3621 21.5877 22.713 21.5877 23.1315C21.5877 23.55 21.4461 23.9008 21.163 24.184C20.8799 24.4671 20.5291 24.6086 20.1105 24.6086Z" fill="#30A6A9"/>
</svg>
