<svg width="306" height="39" viewBox="0 0 306 39" fill="none" xmlns="http://www.w3.org/2000/svg">
<path d="M304.672 3.38516C305.134 3.54804 305.376 4.05427 305.213 4.51586L302.559 12.0379C302.396 12.4995 301.89 12.7416 301.428 12.5788C300.967 12.4159 300.724 11.9097 300.887 11.4481L303.247 4.7618L296.56 2.40244C296.099 2.23956 295.857 1.73333 296.02 1.27174C296.182 0.81015 296.689 0.568001 297.15 0.730881L304.672 3.38516ZM0.718493 3.40188C2.01034 3.93595 3.39745 4.49529 4.87441 5.07631L4.22551 6.72585C2.73981 6.14139 1.34323 5.57824 0.0412727 5.04L0.718493 3.40188ZM13.3376 8.27476C15.9996 9.24414 18.8424 10.2481 21.8474 11.2744L21.2745 12.9518C18.2585 11.9218 15.4045 10.9139 12.7311 9.94034L13.3376 8.27476ZM30.4261 14.118C33.2024 15.0113 36.0825 15.9127 39.0551 16.8146L38.5404 18.5109C35.5582 17.606 32.6688 16.7017 29.8832 15.8054L30.4261 14.118ZM47.7313 19.3702C50.5717 20.1819 53.4793 20.9883 56.4456 21.7841L55.9863 23.4961C53.0105 22.6978 50.0937 21.8888 47.2443 21.0746L47.7313 19.3702ZM65.1863 24.0523C68.0732 24.776 71.0049 25.4857 73.9745 26.1767L73.5728 27.9032C70.5931 27.2098 67.6516 26.4978 64.7552 25.7717L65.1863 24.0523ZM82.7948 28.1477C85.7185 28.7737 88.671 29.3784 91.6463 29.9576L91.3075 31.6975C88.3211 31.1161 85.3578 30.5093 82.4236 29.881L82.7948 28.1477ZM100.534 31.5978C103.492 32.113 106.465 32.5999 109.448 33.0546L109.181 34.807C106.185 34.3503 103.199 33.8613 100.23 33.3441L100.534 31.5978ZM118.393 34.315C121.381 34.7007 124.373 35.0507 127.363 35.3613L127.18 37.1244C124.174 36.8122 121.168 36.4605 118.166 36.073L118.393 34.315ZM136.354 36.1732C139.367 36.4033 142.372 36.5892 145.365 36.7271L145.283 38.4978C142.272 38.359 139.249 38.172 136.219 37.9406L136.354 36.1732ZM154.382 36.9941C155.889 37.0129 157.392 37.0183 158.888 37.0097L158.898 38.7822C157.391 38.7909 155.878 38.7855 154.36 38.7665L154.382 36.9941ZM158.888 37.0097C160.448 37.0007 162.008 36.9773 163.569 36.9399L163.611 38.712C162.04 38.7496 160.469 38.7732 158.898 38.7822L158.888 37.0097ZM172.928 36.5533C176.049 36.3714 179.165 36.1381 182.269 35.858L182.429 37.6234C179.306 37.9052 176.172 38.1398 173.031 38.3228L172.928 36.5533ZM191.589 34.8763C194.704 34.5019 197.803 34.0842 200.879 33.6277L201.139 35.3811C198.047 35.8399 194.933 36.2598 191.8 36.6362L191.589 34.8763ZM210.13 32.1301C213.232 31.5866 216.305 31.0073 219.343 30.3974L219.692 32.1353C216.641 32.748 213.553 33.3299 210.436 33.8761L210.13 32.1301ZM228.517 28.4413C231.606 27.7445 234.649 27.0201 237.64 26.2736L238.069 27.9934C235.066 28.743 232.009 29.4706 228.906 30.1704L228.517 28.4413ZM246.711 23.9023C249.787 23.0616 252.795 22.2027 255.727 21.3325L256.231 23.0317C253.288 23.9055 250.267 24.7681 247.178 25.6122L246.711 23.9023ZM264.687 18.5654C267.765 17.5778 270.736 16.5857 273.588 15.5987L274.168 17.2738C271.303 18.2651 268.319 19.2615 265.229 20.2532L264.687 18.5654ZM282.414 12.4273C285.521 11.2678 288.438 10.1314 291.145 9.03515L291.81 10.6781C289.087 11.7807 286.155 12.923 283.034 14.088L282.414 12.4273ZM299.767 5.3741C301.293 4.69162 302.704 4.03879 303.995 3.42141L304.76 5.02047C303.454 5.64497 302.029 6.30416 300.49 6.99222L299.767 5.3741Z" fill="#30A6A9"/>
</svg>
