<svg width="24" height="31" viewBox="0 0 24 31" fill="none" xmlns="http://www.w3.org/2000/svg">
<path d="M12.1472 15.3765C12.8611 15.3765 13.4704 15.1241 13.9751 14.6194C14.4798 14.1147 14.7322 13.5054 14.7322 12.7914C14.7322 12.0775 14.4798 11.4682 13.9751 10.9635C13.4704 10.4588 12.8611 10.2064 12.1472 10.2064C11.4332 10.2064 10.8239 10.4588 10.3192 10.9635C9.81449 11.4682 9.56214 12.0775 9.56214 12.7914C9.56214 13.5054 9.81449 14.1147 10.3192 14.6194C10.8239 15.1241 11.4332 15.3765 12.1472 15.3765ZM12.1472 27.5999C15.4215 24.621 17.8403 21.919 19.4037 19.494C20.967 17.069 21.7486 14.9333 21.7486 13.0869C21.7486 10.1818 20.8193 7.80606 18.9605 5.95963C17.1018 4.11319 14.8306 3.18997 12.1472 3.18997C9.46367 3.18997 7.19255 4.11319 5.3338 5.95963C3.47505 7.80606 2.54568 10.1818 2.54568 13.0869C2.54568 14.9333 3.3458 17.069 4.94605 19.494C6.5463 21.919 8.94666 24.621 12.1472 27.5999ZM12.1472 30.5172C8.18347 27.1444 5.22302 24.0116 3.26579 21.1189C1.30857 18.2261 0.329956 15.5488 0.329956 13.0869C0.329956 9.394 1.51783 6.45201 3.89358 4.2609C6.26933 2.0698 9.02052 0.974243 12.1472 0.974243C15.2738 0.974243 18.025 2.0698 20.4007 4.2609C22.7765 6.45201 23.9644 9.394 23.9644 13.0869C23.9644 15.5488 22.9857 18.2261 21.0285 21.1189C19.0713 24.0116 16.1108 27.1444 12.1472 30.5172Z" fill="#30A6A9"/>
</svg>
