<svg width="331" height="39" viewBox="0 0 331 39" fill="none" xmlns="http://www.w3.org/2000/svg">
<path d="M330.345 35.5053C330.802 35.3283 331.028 34.8149 330.851 34.3585L327.967 26.9217C327.79 26.4654 327.276 26.2389 326.82 26.4159C326.364 26.5929 326.137 27.1064 326.314 27.5627L328.878 34.1732L322.268 36.7373C321.811 36.9143 321.585 37.4277 321.762 37.8841C321.939 38.3404 322.452 38.5669 322.909 38.3899L330.345 35.5053ZM0.640758 35.5072C1.91742 35.0205 3.27975 34.5129 4.72333 33.9871L4.11666 32.3216C2.66542 32.8502 1.29483 33.3609 0.00938895 33.8509L0.640758 35.5072ZM13.0175 31.076C15.6363 30.188 18.4259 29.2687 21.3704 28.3278L20.8309 26.6393C17.8767 27.5833 15.0772 28.5058 12.4483 29.3973L13.0175 31.076ZM29.7561 25.7207C32.4676 24.9003 35.279 24.0708 38.1807 23.2381L37.6917 21.5343C34.7818 22.3693 31.9623 23.2012 29.2428 24.0241L29.7561 25.7207ZM46.6515 20.8708C49.4206 20.1174 52.256 19.3659 55.1507 18.6206L54.7087 16.904C51.8061 17.6514 48.9629 18.4049 46.1862 19.1604L46.6515 20.8708ZM63.6718 16.4884C66.4816 15.8057 69.3373 15.1321 72.233 14.471L71.8385 12.7429C68.9346 13.4058 66.0709 14.0813 63.2533 14.7659L63.6718 16.4884ZM80.8101 12.5768C83.6503 11.9709 86.522 11.3797 89.42 10.8062L89.0759 9.06731C86.169 9.64254 83.2888 10.2355 80.4403 10.8432L80.8101 12.5768ZM98.0541 9.16636C100.921 8.64509 103.807 8.14352 106.71 7.66451L106.421 5.91559C103.509 6.39622 100.613 6.89944 97.737 7.42238L98.0541 9.16636ZM115.393 6.30752C118.284 5.88154 121.186 5.4803 124.094 5.10654L123.868 3.34843C120.949 3.72362 118.036 4.12636 115.135 4.55387L115.393 6.30752ZM132.816 4.07196C135.73 3.75598 138.645 3.47019 141.556 3.21731L141.403 1.45138C138.478 1.7054 135.551 1.99243 132.625 2.30972L132.816 4.07196ZM150.314 2.55783C153.245 2.37188 156.168 2.22233 159.078 2.11199L159.011 0.34068C156.085 0.451621 153.147 0.601947 150.202 0.788802L150.314 2.55783ZM167.854 1.90047C169.319 1.88608 170.78 1.88256 172.235 1.89028L172.245 0.117729C170.78 0.109958 169.311 0.1135 167.837 0.12798L167.854 1.90047ZM172.235 1.89028C173.733 1.89823 175.231 1.91751 176.729 1.94772L176.765 0.175505C175.258 0.145113 173.751 0.125722 172.245 0.117729L172.235 1.89028ZM185.715 2.25729C188.713 2.40243 191.706 2.58838 194.691 2.81202L194.823 1.04439C191.823 0.819628 188.814 0.632706 185.801 0.486788L185.715 2.25729ZM203.65 3.59603C206.644 3.89514 209.626 4.22948 212.591 4.59585L212.809 2.83665C209.83 2.46864 206.835 2.13275 203.826 1.83223L203.65 3.59603ZM221.504 5.79809C224.491 6.23451 227.457 6.70088 230.397 7.19377L230.69 5.44559C227.738 4.9507 224.76 4.4824 221.76 4.04413L221.504 5.79809ZM239.252 8.77092C242.23 9.33216 245.175 9.918 248.083 10.5247L248.445 8.78943C245.526 8.18051 242.57 7.59242 239.58 7.029L239.252 8.77092ZM256.874 12.4456C259.84 13.1228 262.759 13.8187 265.625 14.5288L266.051 12.8082C263.175 12.0956 260.245 11.3972 257.269 10.7175L256.874 12.4456ZM274.349 16.7746C277.311 17.5656 280.204 18.3679 283.023 19.1759L283.511 17.472C280.682 16.661 277.779 15.8559 274.807 15.0621L274.349 16.7746ZM291.646 21.734C294.611 22.6434 297.473 23.5528 300.223 24.4546L300.775 22.7703C298.015 21.865 295.142 20.9521 292.166 20.0394L291.646 21.734ZM308.75 27.3487C311.752 28.4034 314.577 29.4351 317.205 30.4303L317.833 28.7725C315.19 27.7721 312.353 26.7356 309.337 25.6763L308.75 27.3487ZM325.566 33.7375C327.036 34.3476 328.405 34.9332 329.667 35.4899L330.383 33.8681C329.107 33.3056 327.726 32.7149 326.245 32.1003L325.566 33.7375Z" fill="#30A6A9"/>
</svg>
